<svg width="91" height="86" viewBox="0 0 91 86" fill="none" xmlns="http://www.w3.org/2000/svg">
<path d="M90 43C90 66.1435 70.1307 85 45.5 85C20.8693 85 1 66.1435 1 43C1 19.8565 20.8693 1 45.5 1C70.1307 1 90 19.8565 90 43Z" fill="#060507" stroke="#B9A367" stroke-width="2"/>
<path d="M37.904 52.56C40.976 49.904 43.392 47.728 45.152 46.032C46.944 44.304 48.432 42.512 49.616 40.656C50.8 38.8 51.392 36.944 51.392 35.088C51.392 33.168 50.928 31.664 50 30.576C49.104 29.488 47.68 28.944 45.728 28.944C43.84 28.944 42.368 29.552 41.312 30.768C40.288 31.952 39.744 33.552 39.68 35.568H34.4C34.496 31.92 35.584 29.136 37.664 27.216C39.776 25.264 42.448 24.288 45.68 24.288C49.168 24.288 51.888 25.248 53.84 27.168C55.824 29.088 56.816 31.648 56.816 34.848C56.816 37.152 56.224 39.376 55.04 41.52C53.888 43.632 52.496 45.536 50.864 47.232C49.264 48.896 47.216 50.832 44.72 53.04L42.56 54.96H57.776V59.52H34.448V55.536L37.904 52.56Z" fill="#F5F4EF"/>
</svg>
