<svg width="91" height="86" viewBox="0 0 91 86" fill="none" xmlns="http://www.w3.org/2000/svg">
<path d="M90 43C90 66.1435 70.1307 85 45.5 85C20.8693 85 1 66.1435 1 43C1 19.8565 20.8693 1 45.5 1C70.1307 1 90 19.8565 90 43Z" fill="#060507" stroke="#B9A367" stroke-width="2"/>
<path d="M33.784 33.648C33.976 30.672 35.112 28.352 37.192 26.688C39.304 25.024 41.992 24.192 45.256 24.192C47.496 24.192 49.432 24.592 51.064 25.392C52.696 26.192 53.928 27.28 54.76 28.656C55.592 30.032 56.008 31.584 56.008 33.312C56.008 35.296 55.48 36.992 54.424 38.4C53.368 39.808 52.104 40.752 50.632 41.232V41.424C52.52 42 53.992 43.056 55.048 44.592C56.104 46.096 56.632 48.032 56.632 50.4C56.632 52.288 56.2 53.968 55.336 55.44C54.472 56.912 53.192 58.08 51.496 58.944C49.8 59.776 47.768 60.192 45.4 60.192C41.944 60.192 39.096 59.312 36.856 57.552C34.648 55.76 33.464 53.2 33.304 49.872H38.584C38.712 51.568 39.368 52.96 40.552 54.048C41.736 55.104 43.336 55.632 45.352 55.632C47.304 55.632 48.808 55.104 49.864 54.048C50.92 52.96 51.448 51.568 51.448 49.872C51.448 47.632 50.728 46.048 49.288 45.12C47.88 44.16 45.704 43.68 42.76 43.68H41.512V39.168H42.808C45.4 39.136 47.368 38.704 48.712 37.872C50.088 37.04 50.776 35.728 50.776 33.936C50.776 32.4 50.28 31.184 49.288 30.288C48.296 29.36 46.888 28.896 45.064 28.896C43.272 28.896 41.88 29.36 40.888 30.288C39.896 31.184 39.304 32.304 39.112 33.648H33.784Z" fill="#F5F4EF"/>
</svg>
